<svg xmlns="http://www.w3.org/2000/svg" viewBox="0 0 1600 1000" role="img" aria-label="Low opacity travel landmark background">
  <defs>
    <linearGradient id="sky" x1="0" x2="0" y1="0" y2="1">
      <stop offset="0" stop-color="#a7dcff"/>
      <stop offset="0.42" stop-color="#dcf7ff"/>
      <stop offset="1" stop-color="#fff7ed"/>
    </linearGradient>
    <linearGradient id="water" x1="0" x2="1" y1="0" y2="1">
      <stop offset="0" stop-color="#38bdf8"/>
      <stop offset="0.55" stop-color="#2dd4bf"/>
      <stop offset="1" stop-color="#60a5fa"/>
    </linearGradient>
    <linearGradient id="land" x1="0" x2="1" y1="0" y2="1">
      <stop offset="0" stop-color="#bbf7d0"/>
      <stop offset="0.56" stop-color="#fde68a"/>
      <stop offset="1" stop-color="#fed7aa"/>
    </linearGradient>
    <filter id="softBlur">
      <feGaussianBlur stdDeviation="18"/>
    </filter>
  </defs>
  <rect width="1600" height="1000" fill="url(#sky)"/>
  <circle cx="1230" cy="160" r="130" fill="#fed7aa" opacity="0.36" filter="url(#softBlur)"/>
  <path d="M0 600 C220 520 360 560 520 498 C690 432 840 470 1010 402 C1236 312 1386 342 1600 238 L1600 1000 L0 1000 Z"
        fill="url(#water)" opacity="0.46"/>
  <path d="M70 714 C206 625 330 640 490 610 C622 585 708 655 842 630 C1010 600 1102 514 1242 542 C1374 568 1455 668 1600 626 L1600 1000 L0 1000 L0 760 Z"
        fill="url(#land)" opacity="0.48"/>
  <path d="M0 828 C198 762 340 806 528 748 C705 694 846 748 1010 718 C1246 674 1386 710 1600 640 L1600 1000 L0 1000 Z"
        fill="#e0f2fe" opacity="0.38"/>

  <g fill="#0f172a" opacity="0.16">
    <path d="M252 566 h64 l-28 -290 z"/>
    <path d="M232 378 h104 l-50 -30 z"/>
    <path d="M214 470 h140 l-66 -34 z"/>
    <rect x="248" y="566" width="74" height="110" rx="5"/>
    <path d="M506 382 l32 270 h-88 l30 -270 z"/>
    <rect x="444" y="646" width="104" height="30" rx="5"/>
    <path d="M444 382 h104 l-52 -34 z"/>
    <path d="M746 392 c54 0 76 62 46 102 c-14 19 -38 28 -72 28 h-68 c-36 0 -62 -23 -62 -56 c0 -37 32 -64 70 -56 c18 -28 48 -42 86 -18z"/>
    <rect x="668" y="520" width="86" height="152" rx="6"/>
    <path d="M986 394 c28 0 52 24 52 52 v222 h-104 v-222 c0 -28 23 -52 52 -52z"/>
    <rect x="912" y="470" width="148" height="50" rx="8"/>
    <rect x="1130" y="430" width="128" height="240" rx="62"/>
    <path d="M1130 508 h128 M1134 568 h120 M1148 626 h92" fill="none" stroke="#0f172a" stroke-width="16" opacity="0.9"/>
    <path d="M1342 496 c78 -96 154 -92 224 0 l-24 176 h-196 z"/>
    <circle cx="1456" cy="502" r="52"/>
  </g>

  <g fill="none" stroke="#2563eb" stroke-width="5" stroke-linecap="round" opacity="0.26">
    <path d="M120 242 C306 112 542 120 720 250 C930 404 1102 384 1468 172" stroke-dasharray="18 20"/>
    <path d="M180 742 C356 656 512 690 674 606 C842 520 996 550 1160 468 C1314 392 1424 396 1540 338" stroke-dasharray="15 17"/>
  </g>

  <g fill="#2563eb" opacity="0.24">
    <path d="M202 226 l74 -22 -30 62 96 -23 -112 72 -22 88 -30 -72 -88 8 72 -52 -34 -78z"/>
    <path d="M1262 188 l62 -18 -25 52 80 -19 -94 60 -18 72 -26 -58 -70 6 58 -43 -28 -62z"/>
  </g>

  <g fill="none" stroke="#0f766e" stroke-width="6" stroke-linecap="round" stroke-linejoin="round" opacity="0.24">
    <path d="M820 640 c-25 -72 -100 -72 -126 0 c-22 62 38 140 64 172 c24 -32 86 -110 62 -172z"/>
    <circle cx="758" cy="640" r="28"/>
  </g>
</svg>
